<?xml version="1.0" encoding="utf-8"?>
<!-- Generator: Adobe Illustrator 18.0.0, SVG Export Plug-In . SVG Version: 6.00 Build 0)  -->
<!DOCTYPE svg PUBLIC "-//W3C//DTD SVG 1.1//EN" "http://www.w3.org/Graphics/SVG/1.1/DTD/svg11.dtd">
<svg version="1.1" xmlns="http://www.w3.org/2000/svg" xmlns:xlink="http://www.w3.org/1999/xlink" x="0px" y="0px"
	 viewBox="0 0 1600 900" enable-background="new 0 0 1600 900" xml:space="preserve">
<g id="Background">
	<rect x="0" y="0" fill="#E3F2FD" width="1600" height="900"/>
</g>
<g id="Artwork">
	<g>
		<defs>
			<rect id="SVGID_1_" x="0" y="0" width="1600" height="900"/>
		</defs>
		<clipPath id="SVGID_2_">
			<use xlink:href="#SVGID_1_"  overflow="visible"/>
		</clipPath>
		<path clip-path="url(#SVGID_2_)" fill="#BBDEFB" d="M1468.9,236c-10.3-4.9-21.7-8.1-33.6-9.1c-1.7-0.2-3.4-0.4-5.1-0.5
			c-1-7.1-2.5-14.2-4.4-21c-7.7-2.7-15.9-4.5-24.4-5.2c-1.7-0.2-3.4-0.4-5.1-0.5c-4.1-28.8-15.5-55.3-32.1-77.6
			c-4.6-6.3-9.6-12.2-15.1-17.8c-14.4-8.7-30.1-15.3-46.8-19.5c-6.6-1.7-13.4-2.9-20.3-3.8c-6.9-0.9-13.9-1.3-21.1-1.3
			c-31.2,0-60.5,8.4-85.7,23.1c-2.8-10-7-20.5-12.6-31.1c-0.9-1.7-1.7-3.3-2.7-5c-6.4,2.7-12.6,5.9-18.6,9.3
			c-2.8-10-7-20.5-12.6-31.1c-8.2-15.9-18.7-30.3-31.1-42.8c-6.8-4.1-14.1-7.9-21.7-11.1v0c-7-3-14.4-5.5-22.1-7.5
			c-1-0.3-1.9-0.5-2.9-0.8l0,0h0c-13.5-3.4-27.6-5.2-42.1-5.2c-95.5,0-172.9,77.5-172.9,173.1c0,3.3,0.1,6.6,0.3,9.8
			c-70.6,2-127.2,59.8-127.2,131c0,45.7,23.4,85.9,58.8,109.4c0.3,0.2,0.5,0.4,0.8,0.5c1.2,0.8,2.4,1.6,3.7,2.3
			c0.2,0.1,0.3,0.2,0.5,0.3c1.1,0.7,2.3,1.3,3.4,2c0.3,0.1,0.5,0.3,0.8,0.4c1.3,0.7,2.5,1.4,3.8,2c0.2,0.1,0.5,0.2,0.7,0.4
			c1.2,0.6,2.3,1.1,3.5,1.7c0.2,0.1,0.4,0.2,0.6,0.3c1.3,0.6,2.7,1.2,4,1.7c0.3,0.1,0.6,0.2,0.9,0.4c1.3,0.5,2.6,1,3.9,1.5
			c0.1,0,0.2,0.1,0.3,0.1c1.4,0.5,2.8,1,4.2,1.4c0.3,0.1,0.6,0.2,1,0.3c1.4,0.5,2.8,0.9,4.3,1.3c0.1,0,0.2,0.1,0.3,0.1
			c1.3,0.4,2.7,0.7,4.1,1.1c0.3,0.1,0.6,0.2,1,0.2c1.4,0.3,2.9,0.7,4.3,1c0.2,0,0.5,0.1,0.7,0.1c1.3,0.3,2.6,0.5,3.9,0.7
			c0.3,0,0.6,0.1,0.9,0.1c1.5,0.2,3,0.4,4.4,0.6c0.3,0,0.6,0.1,1,0.1c1.4,0.2,2.7,0.3,4.1,0.4c0.2,0,0.4,0,0.6,0.1
			c1.5,0.1,3,0.2,4.6,0.3c0.4,0,0.7,0,1.1,0c1.6,0.1,3.1,0.1,4.7,0.1h236.1v0h348.6c4.2,0,8.4-0.3,12.5-0.8c1.6-0.2,3.3-0.5,4.9-0.7
			c2.4-0.4,4.8-1,7.2-1.6c2.4-0.6,4.7-1.3,7-2.1c1.5-0.5,3-1.1,4.5-1.6c2.1-0.8,4.2-1.7,6.2-2.7c34-15.2,57.8-49.4,57.8-89.2
			C1524.6,285.3,1501.8,251.7,1468.9,236z"/>
		<g clip-path="url(#SVGID_2_)">
			<path fill="#4CAF50" d="M1136.5,726.3l23.9,21.3c2.3,2,5.9,0.4,5.9-2.7v-42.7c0-3.1-3.6-4.7-5.9-2.7l-23.9,21.4
				C1134.9,722.4,1134.9,724.8,1136.5,726.3z"/>
			<g>
				
					<path fill="none" stroke="#4CAF50" stroke-width="15" stroke-linecap="round" stroke-linejoin="round" stroke-miterlimit="10" d="
					M1362.6,376.8v323.8c0,13.8-11.2,25-25,25H1158"/>
			</g>
		</g>
		<path clip-path="url(#SVGID_2_)" fill="#FAFAFA" d="M1490.7,297.5c0,39.7-23.7,73.9-57.7,89.2c-2.1,1-4.1,1.9-6.3,2.7
			c-1.5,0.6-3,1.1-4.5,1.6c-2.3,0.8-4.6,1.5-7,2.1c-2.4,0.6-4.8,1.1-7.2,1.6c-1.6,0.3-3.2,0.5-4.9,0.7c-4.1,0.5-8.3,0.8-12.5,0.8
			H805.9c-1.6,0-3.1,0-4.7-0.1c-0.4,0-0.7,0-1.1,0c-1.5-0.1-3-0.2-4.6-0.3c-0.2,0-0.4,0-0.6,0c-1.4-0.1-2.7-0.3-4.1-0.4
			c-0.3,0-0.6-0.1-1-0.1c-1.5-0.2-3-0.4-4.4-0.6c-0.3-0.1-0.6-0.1-0.9-0.2c-1.3-0.2-2.6-0.5-3.9-0.7c-0.2,0-0.5-0.1-0.7-0.1
			c-1.5-0.3-2.9-0.6-4.3-0.9c-0.3-0.1-0.6-0.2-1-0.2c-1.4-0.4-2.7-0.7-4.1-1.1c-0.1,0-0.2-0.1-0.3-0.1c-1.4-0.4-2.8-0.8-4.3-1.3
			c-0.3-0.1-0.6-0.2-1-0.3c-1.4-0.5-2.8-0.9-4.2-1.5c-0.1,0-0.2-0.1-0.3-0.1c-1.3-0.5-2.6-1-3.9-1.5c-0.3-0.1-0.6-0.3-0.9-0.4
			c-1.3-0.5-2.7-1.1-4-1.7c-0.2-0.1-0.4-0.2-0.6-0.3c-1.2-0.5-2.4-1.1-3.5-1.7c-0.2-0.1-0.5-0.3-0.7-0.4c-1.3-0.6-2.6-1.3-3.8-2
			c-0.3-0.2-0.5-0.3-0.8-0.5c-1.2-0.6-2.3-1.3-3.4-2c-0.2-0.1-0.3-0.2-0.5-0.3c-1.2-0.7-2.5-1.5-3.7-2.3c-0.3-0.2-0.5-0.4-0.8-0.5
			c-35.4-23.5-58.8-63.7-58.8-109.4c0-71.1,56.6-129,127.3-131c-0.2-3.2-0.3-6.5-0.3-9.8c0-95.6,77.4-173.1,173-173.1
			c7.3,0,14.4,0.5,21.4,1.3c7,0.9,13.9,2.2,20.7,3.8c1,0.3,1.9,0.5,2.9,0.8c19.2,5,36.4,13.2,51.3,23.4c0.3,0.2,0.7,0.5,1,0.7
			c0.6,0.4,1.2,0.8,1.7,1.2c8.5,5.9,16.4,12.6,23.6,20c12.4,12.5,22.9,26.9,31.1,42.8c5.6,10.6,9.8,21.1,12.6,31.1
			c6-3.5,12.2-6.6,18.6-9.3c20.6-8.8,43.3-13.7,67.1-13.7c7.1,0,14.2,0.4,21.1,1.3c6.9,0.9,13.7,2.1,20.3,3.8
			c22,5.5,42.3,15.2,60,28.3c0.2,0.2,0.4,0.3,0.6,0.5c0.8,0.6,1.5,1.1,2.3,1.7c6.4,4.9,12.3,10.1,17.8,15.7
			c5.5,5.6,10.5,11.5,15.1,17.8c16.6,22.3,27.9,48.8,32.1,77.6c1.7,0.1,3.4,0.3,5.1,0.5c8.5,0.7,16.7,2.5,24.4,5.2
			c17.1,6.1,32,16.7,43.2,30.5C1482.5,252.8,1490.7,274.2,1490.7,297.5z"/>
	</g>
	<g>
		<path fill="none" stroke="#2196F3" stroke-width="15" stroke-miterlimit="10" d="M197.3,308.7V164.4c0-13.8,11.2-25,25-25h426.9"
			/>
	</g>
	<g>
		<circle fill="#2196F3" cx="424.1" cy="142.3" r="80.3"/>
		<g>
			<g>
				<g>
					<path fill="#FFFFFF" d="M454.9,161.3v-26c0-14.5-10.1-26.7-23.7-29.9v-3.2c0-3.9-3.2-7.1-7.1-7.1s-7.1,3.2-7.1,7.1v3.2
						c-13.6,3.2-23.7,15.4-23.7,29.9v26l-9.5,9.5v4.7h80.4v-4.7L454.9,161.3z M424.1,189.7c5.2,0,9.5-4.3,9.5-9.5h-18.9
						C414.7,185.4,418.9,189.7,424.1,189.7z"/>
				</g>
			</g>
		</g>
	</g>
	<path fill="#2196F3" d="M663.6,136.7l-23.9-21.3c-2.3-2-5.9-0.4-5.9,2.7v42.7c0,3.1,3.6,4.7,5.9,2.7l23.9-21.4
		C665.2,140.6,665.2,138.1,663.6,136.7z"/>
	<path fill-rule="evenodd" clip-rule="evenodd" fill="#616262" d="M984.5,785.6l-586.3,0c-2.4,0-4.3-1.9-4.3-4.3l0-400.2
		c0-2.4,1.9-4.3,4.3-4.3l586.3,0c2.4,0,4.3,1.9,4.3,4.3l0,400.2C988.8,783.6,986.9,785.6,984.5,785.6z"/>
	<polygon fill-rule="evenodd" clip-rule="evenodd" fill="#FAFAFA" points="419.1,401.3 419.1,746.5 961.9,746.5 961.9,401.3 
		419.1,401.3 	"/>
	<path fill-rule="evenodd" clip-rule="evenodd" fill="#9E9E9E" d="M1085,794.7l-787.3,0c-3.3,0-5.9-2.6-5.9-5.9v-13.9
		c0-3.3,0-5.9,0-5.9l799,0c0,0,0,2.6,0,5.9v13.9C1090.9,792.1,1088.2,794.7,1085,794.7z"/>
	<path fill-rule="evenodd" clip-rule="evenodd" fill="#424242" d="M635.6,769.1h110.3v4.9c0,2.7-2.2,4.9-4.9,4.9H640.5
		c-2.7,0-4.9-2.2-4.9-4.9V769.1L635.6,769.1z"/>
	<g>
		<g>
			<path fill="#616262" d="M1079.1,582.6c-5.8-2.5-34.5-3-61.2-3s-55.4,0.5-61.2,3c-6,2.6-13.1,7.9-13.1,17.5v243
				c0,9.6,7,14.6,13.1,17.2c5.8,2.5,34.5,2.9,61.2,2.9s55.4-0.4,61.2-2.9c6-2.6,12.7-7.5,12.7-17.2v-243
				C1091.8,590.5,1085.2,585.2,1079.1,582.6z M1085.1,842.7H950.8V603.9h134.3V842.7z"/>
		</g>
	</g>
	<g>
		<circle fill="#424242" cx="1061.9" cy="588.6" r="2.7"/>
	</g>
	<g>
		<path fill="#424242" d="M1034.5,591.3h-33.2c-1.4,0-2.5-1.2-2.5-2.7c0-1.4,1.1-2.7,2.5-2.7h33.2c1.4,0,2.5,1.2,2.5,2.7
			C1037,590,1035.9,591.3,1034.5,591.3z"/>
	</g>
	<g>
		<path fill="#424242" d="M990.5,591.3h-5.9c-1.3,0-2.2-1.2-2.2-2.7c0-1.4,1-2.7,2.2-2.7h5.9c1.3,0,2.2,1.2,2.2,2.7
			C992.8,590,991.8,591.3,990.5,591.3z"/>
	</g>
	<rect x="950.8" y="603.8" fill="#FAFAFA" width="134.3" height="240.4"/>
	<g>
		<path fill="#424242" d="M1034.5,857.3h-33.2c-1.4,0-2.5-1.2-2.5-2.7s1.1-2.7,2.5-2.7h33.2c1.4,0,2.5,1.2,2.5,2.7
			S1035.9,857.3,1034.5,857.3z"/>
	</g>
	<g>
		<path fill="#616262" d="M901.4,617.7v233.2c0,6.8-5.5,12.3-12.3,12.3H530.5c-6.8,0-12.3-5.5-12.3-12.3V617.7
			c0-6.8,5.5-12.3,12.3-12.3h40.8h89.2H889C895.8,605.4,901.4,610.9,901.4,617.7z"/>
		<rect x="556.4" y="619" fill="#FAFAFA" width="307.6" height="230.5"/>
		<path fill="#424242" d="M518.2,696.3l2.6,0.7c0.5,0.2,0.9,0.4,0.9,0.9v0.6v72.2c0,0.5-0.4,0.8-0.9,0.9l-2.6,0.7V696.3z"/>
		<path fill="#424242" d="M901.4,772.3l-2.6-0.7c-0.5-0.2-0.9-0.4-0.9-0.9v-0.6v-72.2c0-0.5,0.4-0.8,0.9-0.9l2.6-0.7V772.3z"/>
		<path fill="#424242" d="M543.1,731.7c-1.8-0.3-3.4,1.2-3.1,3.1c0.2,1,1,1.9,2,2c1.8,0.3,3.4-1.2,3.1-3.1
			C544.9,732.8,544.1,731.9,543.1,731.7z"/>
	</g>
	<g>
		<path fill="#9E9E9E" d="M311,357.9H82.1V290c0-7.3,5.9-13.2,13.2-13.2h202.5c7.3,0,13.2,5.9,13.2,13.2V357.9z"/>
		<rect x="82.1" y="366.4" fill="#9E9E9E" width="228.8" height="81.1"/>
		<path fill="#9E9E9E" d="M297.8,537H95.3c-7.3,0-13.2-5.9-13.2-13.2V456H311v67.9C311,531.1,305.1,537,297.8,537z"/>
		<circle fill="#FFFFFF" cx="110.1" cy="317.4" r="8.6"/>
		<path fill="#616262" d="M263.2,321.5h-121c-2.3,0-4.2-1.9-4.2-4.2v0c0-2.3,1.9-4.2,4.2-4.2h121c2.3,0,4.2,1.9,4.2,4.2v0
			C267.3,319.6,265.5,321.5,263.2,321.5z"/>
		<circle fill="#FFFFFF" cx="110.1" cy="406.9" r="8.6"/>
		<path fill="#616262" d="M263.2,411.1h-121c-2.3,0-4.2-1.9-4.2-4.2l0,0c0-2.3,1.9-4.2,4.2-4.2h121c2.3,0,4.2,1.9,4.2,4.2l0,0
			C267.3,409.2,265.5,411.1,263.2,411.1z"/>
		<circle fill="#FFFFFF" cx="110.1" cy="496.5" r="8.6"/>
		<path fill="#616262" d="M263.2,500.6h-121c-2.3,0-4.2-1.9-4.2-4.2v0c0-2.3,1.9-4.2,4.2-4.2h121c2.3,0,4.2,1.9,4.2,4.2v0
			C267.3,498.8,265.5,500.6,263.2,500.6z"/>
	</g>
	<g>
		<circle fill="#01579B" cx="487" cy="81.3" r="35"/>
		<text transform="matrix(1 0 0 1 475.3776 93.1106)" fill="#FFFFFF" font-family="'Roboto-Bold'" font-size="40.4118">2</text>
	</g>
	<rect x="1355.1" y="396.2" fill="#42A047" width="15" height="26.5"/>
	<g>
		<rect x="430.2" y="411.1" fill="#4CAF50" width="520.6" height="76.8"/>
		<g>
			<g>
				<g>
					<path fill="#FFFFFF" d="M501.5,459.7v-14.1c0-7.9-5.5-14.5-12.8-16.2v-1.7c0-2.1-1.7-3.8-3.8-3.8s-3.8,1.7-3.8,3.8v1.7
						c-7.4,1.7-12.8,8.3-12.8,16.2v14.1l-5.1,5.1v2.6h43.6v-2.6L501.5,459.7z M484.9,475.1c2.8,0,5.1-2.3,5.1-5.1h-10.3
						C479.7,472.8,482,475.1,484.9,475.1z"/>
				</g>
			</g>
		</g>
		<g>
			<rect x="539.7" y="439.7" fill="#FAFAFA" width="359.9" height="19.5"/>
		</g>
	</g>
	<g>
		<rect x="567.7" y="628.9" fill="#4CAF50" width="285.1" height="42.1"/>
		<g>
			<g>
				<g>
					<path fill="#FFFFFF" d="M606.7,655.6v-7.7c0-4.3-3-7.9-7-8.9v-1c0-1.2-0.9-2.1-2.1-2.1s-2.1,0.9-2.1,2.1v1c-4,1-7,4.6-7,8.9
						v7.7l-2.8,2.8v1.4h23.9v-1.4L606.7,655.6z M597.6,664c1.5,0,2.8-1.3,2.8-2.8h-5.6C594.8,662.8,596.1,664,597.6,664z"/>
				</g>
			</g>
		</g>
		<g>
			<rect x="627.6" y="644.6" fill="#FAFAFA" width="197.1" height="10.7"/>
		</g>
	</g>
	<g>
		<rect x="960.4" y="613.5" fill="#4CAF50" width="115.5" height="27.4"/>
		<g>
			<g>
				<path fill="#FFFFFF" d="M985.9,630.9v-5.1c0-2.8-2-5.2-4.6-5.8v-0.6c0-0.8-0.6-1.4-1.4-1.4c-0.8,0-1.4,0.6-1.4,1.4v0.6
					c-2.7,0.6-4.6,3-4.6,5.8v5.1l-1.9,1.9v0.9h15.7v-0.9L985.9,630.9z M979.9,636.5c1,0,1.9-0.8,1.9-1.9h-3.7
					C978.1,635.7,978.9,636.5,979.9,636.5z"/>
			</g>
		</g>
		<rect x="999.4" y="623.7" fill="#FAFAFA" width="57.8" height="7"/>
	</g>
</g>
</svg>
